<?xml version="1.0" encoding="utf-8"?>
<!-- Generator: Adobe Illustrator 21.1.0, SVG Export Plug-In . SVG Version: 6.00 Build 0)  -->
<svg version="1.1" id="Layer_1" xmlns="http://www.w3.org/2000/svg" xmlns:xlink="http://www.w3.org/1999/xlink" x="0px" y="0px"
	 viewBox="0 0 270 60" style="enable-background:new 0 0 270 60;" xml:space="preserve">
<title>Artboard 1</title>
<g>
	<path d="M21.7,6.4H26v32.2h-4.8l0.3-23.3l-0.1-0.1l-4.9,10.7h-0.9l-4.8-10.6l-0.1,0.1L11,38.8H6.2V6.4h4.3l5.6,11.9L21.7,6.4z"/>
	<path d="M38.1,16.7c4.9,0,8,4.3,8,11.3s-3,11.3-8,11.3c-4.9,0-8-4.3-8-11.3C30,21,33.1,16.7,38.1,16.7z M38.1,35.7
		c2.2,0,3.3-2.7,3.3-7.6c0-5.1-1.2-7.7-3.4-7.7c-2.2,0-3.3,2.8-3.3,7.7S35.8,35.7,38.1,35.7z"/>
	<path d="M60,38.7V37h-0.1c-1,1.3-2.5,1.9-4,1.9c-3.7,0-7.1-3.7-7.1-11c0-6.7,3-11.4,7.4-11.4c1.6,0,2.8,0.6,4,1.8V6.4h4.5v32.2H60z
		 M60,22.5c-0.6-1.3-1.6-2.1-3-2.1c-2.4,0-3.9,3-3.9,7.9c0,4.6,1.3,7.1,3.6,7.1c1.3,0,2.4-0.6,3.1-2.1V22.5H60z"/>
	<path d="M81.4,37.3c-1.6,1.3-3.3,1.9-5.2,1.9c-5.1,0-8.2-3.9-8.2-11.3c0-7.1,2.5-11.3,7-11.3c2.8,0,4.3,1.5,5.3,3.3
		c0.7,1,1.5,3.7,1.5,8.9h-9.4c0,4.5,1.5,7,4.5,7c1.6,0,3.1-0.7,4.3-2.1v3.6H81.4z M77.4,26c0-4-0.7-6.1-2.5-6.1
		c-1.6,0-2.4,2.1-2.4,6.1H77.4z"/>
	<path d="M85.9,17.3h4.5v5.8h0.1C92.3,18,93,17,95.3,17c0.9,0,1.5,0.3,2.2,0.7l-0.3,3.7c-0.7-0.4-1.2-0.6-1.9-0.6
		c-3.4,0-4.8,6.8-4.8,9.2v8.5H86V17.3H85.9z"/>
	<path d="M100,17.3h4.5v2.2h0.1c1.3-1.9,2.7-2.7,4.8-2.7c3.1,0,5.5,2.1,5.5,6.4v15.5h-4.5V23.4c0-1.9-0.6-3.1-2.4-3.1
		c-1.3,0-2.5,0.9-3.6,2.5v15.8H100C100,38.5,100,17.3,100,17.3z"/>
	<path d="M130.6,6.4h5.5c9.8,0,13.1,6.5,13.1,16c0,13.4-7,16.2-12.5,16.2h-6.1V6.4z M136.4,34.8c5.8,0,8-3.4,8-12
		c0-9.1-2.1-12.5-7.9-12.5h-0.9v24.5H136.4z"/>
	<path d="M164.7,37.3c-1.6,1.3-3.3,1.9-5.2,1.9c-5.1,0-8.2-3.9-8.2-11.3c0-7.1,2.5-11.3,7-11.3c2.8,0,4.3,1.5,5.3,3.3
		c0.7,1,1.5,3.7,1.5,8.9h-9.4c0,4.5,1.5,7,4.5,7c1.6,0,3.1-0.7,4.3-2.1v3.6H164.7z M160.7,26c0-4-0.7-6.1-2.5-6.1
		c-1.6,0-2.4,2.1-2.4,6.1H160.7z"/>
	<path d="M169.1,17.3h4.5v2.2h0.1c1.3-1.9,2.7-2.7,4.8-2.7c3.1,0,5.5,2.1,5.5,6.4v15.5h-4.5V23.4c0-1.9-0.6-3.1-2.4-3.1
		c-1.3,0-2.5,0.9-3.6,2.5v15.8h-4.5V17.3z"/>
	<path d="M198.1,38.5c-1.8,0.6-2.8,0.7-4,0.7c-3,0-4.8-1.3-4.8-4.8v-14h-3v-0.3c2.7-2.7,4.8-5.3,7-8.5h0.4v5.5h4.2v3.3h-4.2v12.2
		c0,2.1,0.3,2.8,1.8,2.8c0.7,0,1.3-0.1,2.4-0.6v3.6H198.1z"/>
	<path d="M202.7,6c1.5,0,2.5,0.9,2.5,2.2c0,1.2-1.2,2.1-2.5,2.1c-1.5,0-2.5-0.9-2.5-2.1S201.4,6,202.7,6z M200.5,17.3h4.5v21.4h-4.5
		V17.3z"/>
	<path d="M208.4,33.3c1.8,1.6,3,2.2,4.5,2.2c1.2,0,2.2-0.7,2.2-1.8c0-3.3-6.4-7.3-6.4-12.2c0-2.8,2.2-5.1,5.5-5.1
		c1.5,0,2.8,0.4,4.3,1.3v3.6c-1.5-1-2.7-1.5-3.9-1.5c-1,0-1.8,0.6-1.8,1.6c0,3.1,6.7,7,6.7,12c0,3.3-2.5,5.5-6.1,5.5
		c-1.8,0-3.3-0.6-5.1-1.8L208.4,33.3L208.4,33.3z"/>
	<path d="M232.6,38.5c-1.8,0.6-2.8,0.7-4,0.7c-3,0-4.8-1.3-4.8-4.8v-14h-3v-0.3c2.7-2.7,4.8-5.3,7-8.5h0.4v5.5h4.2v3.3h-4.2v12.2
		c0,2.1,0.3,2.8,1.8,2.8c0.7,0,1.3-0.1,2.4-0.6v3.6H232.6z"/>
	<path d="M235.1,17.3h4.5v5.8h0.1c1.8-5.1,2.5-6.1,4.8-6.1c0.9,0,1.5,0.3,2.2,0.7l-0.3,3.9c-0.7-0.4-1.2-0.6-1.9-0.6
		c-3.4,0-4.8,6.8-4.8,9.2v8.5h-4.5V17.3H235.1z"/>
	<path d="M253.8,35l-6.7-17.5h4.6l4.2,11.1h0.1l3.7-11.1h4.5l-11.8,35.2H248L253.8,35z"/>
</g>
<g>
	<path d="M14.8,52.4c0,1.5-0.6,2.6-2.2,2.6c-0.2,0-0.3,0-0.3,0l-0.2-1h0.3c1.2,0,1.3-0.6,1.3-1.9v-7.8h1.1
		C14.8,44.3,14.8,52.4,14.8,52.4z"/>
	<path d="M20.6,51.8c-0.6,0.4-1.2,0.6-2.1,0.6c-1.6,0-2.6-1.4-2.6-2.8c0-1.6,1-2.7,2.4-2.7c1.4,0,2.2,0.9,2.2,2.9h-3.7
		c0.2,1,0.8,1.6,1.7,1.6c0.6,0,1.2-0.3,1.8-0.6v1H20.6z M19.6,49.1c0-0.8-0.5-1.3-1.2-1.3c-0.8,0-1.3,0.5-1.4,1.3H19.6z"/>
	<path d="M22.9,47v1.2l0,0c0.5-0.9,1-1.3,1.6-1.3c0.4,0,0.8,0.2,1.2,0.6l-0.5,0.9c-0.3-0.3-0.7-0.5-0.9-0.5c-0.7,0-1.3,0.7-1.3,1.6
		v2.7h-1V47H22.9z"/>
	<path d="M31.4,49.6c0,1.6-1.1,2.8-2.8,2.8c-1.6,0-2.8-1.2-2.8-2.8c0-1.6,1.2-2.7,2.8-2.7C30.2,46.9,31.4,48,31.4,49.6z M26.9,49.6
		c0,1.1,0.7,1.9,1.7,1.9c1.1,0,1.8-0.7,1.8-1.8c0-1-0.8-1.8-1.8-1.8C27.6,47.8,26.9,48.5,26.9,49.6z"/>
	<path d="M33.5,47v0.7c0.5-0.5,1-0.8,1.6-0.8c0.7,0,1.2,0.3,1.6,0.9c0.4-0.5,1-0.9,1.7-0.9c1,0,1.7,0.9,1.7,2.1v3.3h-1V49
		c0-0.8-0.5-1.2-1.1-1.2c-0.3,0-0.8,0.3-1.2,0.7v3.8h-1V49c0-0.9-0.4-1.2-0.9-1.2s-0.9,0.2-1.3,0.7v3.8h-1V47H33.5z"/>
	<path d="M41.8,55h-1.1l1.8-3.9L40.4,47h1.2l1.4,3l1.4-3h1.2L41.8,55z"/>
	<path d="M55.4,52.2h-1.2l-1-2.3h-3.4l-1,2.3h-1.2l3.4-8.1h0.8L55.4,52.2z M50.2,48.9h2.5L51.4,46L50.2,48.9z"/>
	<path d="M57.4,51.6c0,0.4-0.3,0.7-0.7,0.7c-0.3,0-0.7-0.3-0.7-0.7c0-0.3,0.3-0.7,0.7-0.7S57.4,51.3,57.4,51.6z"/>
	<path d="M63.3,44.2c1.7,0,2.5,1,2.5,2.3s-0.9,2.2-2.7,2.2H62v3.4h-1.1v-8H63.3z M62,47.8h1.3c0.9,0,1.4-0.4,1.4-1.3
		c0-0.6-0.3-1.2-1.4-1.2h-1.4L62,47.8L62,47.8z"/>
	<path d="M70.8,51.8c-0.6,0.4-1.2,0.6-2.1,0.6c-1.6,0-2.6-1.4-2.6-2.8c0-1.6,1-2.7,2.4-2.7c1.4,0,2.2,0.9,2.2,2.9h-3.7
		c0.2,1,0.8,1.6,1.7,1.6c0.6,0,1.2-0.3,1.8-0.6v1H70.8z M69.9,49.1c0-0.8-0.5-1.3-1.2-1.3c-0.8,0-1.3,0.5-1.4,1.3H69.9z"/>
	<path d="M73.2,47h1.6v0.9h-1.6v2.8c0,0.6,0.4,0.8,0.8,0.8s0.8-0.1,1.2-0.3v0.9c-0.3,0.2-0.9,0.3-1.3,0.3c-1.1,0-1.7-0.7-1.7-1.6
		v-2.8h-0.9v-0.1l2-1.9C73.2,46,73.2,47,73.2,47z"/>
	<path d="M80.2,51.8c-0.6,0.4-1.2,0.6-2.1,0.6c-1.6,0-2.6-1.4-2.6-2.8c0-1.6,1-2.7,2.4-2.7c1.4,0,2.2,0.9,2.2,2.9h-3.7
		c0.2,1,0.8,1.6,1.7,1.6c0.6,0,1.2-0.3,1.8-0.6v1H80.2z M79.3,49.1c0-0.8-0.5-1.3-1.2-1.3c-0.8,0-1.3,0.5-1.4,1.3H79.3z"/>
	<path d="M82.6,47v1.2l0,0c0.5-0.9,1-1.3,1.6-1.3c0.4,0,0.8,0.2,1.2,0.6l-0.5,0.9c-0.3-0.3-0.7-0.5-0.9-0.5c-0.7,0-1.3,0.7-1.3,1.6
		v2.7h-1V47H82.6z"/>
	<path d="M89.1,48.4c-0.6-0.4-1.1-0.6-1.6-0.6c-0.4,0-0.7,0.2-0.7,0.5c0,0.3,0.3,0.5,1.3,1c0.9,0.6,1.2,0.9,1.2,1.5
		c0,0.9-0.8,1.6-1.7,1.6c-0.6,0-1.1-0.1-1.8-0.5v-1.1c0.7,0.4,1.3,0.7,1.7,0.7c0.4,0,0.8-0.3,0.8-0.6c0-0.8-2.4-1.1-2.4-2.6
		c0-0.9,0.7-1.5,1.7-1.5c0.5,0,1,0.2,1.6,0.4L89.1,48.4L89.1,48.4z"/>
	<path d="M95.8,49.6c0,1.6-1.1,2.8-2.8,2.8c-1.6,0-2.8-1.2-2.8-2.8c0-1.6,1.2-2.7,2.8-2.7C94.7,46.9,95.8,48,95.8,49.6z M91.4,49.6
		c0,1.1,0.7,1.9,1.7,1.9c1.1,0,1.8-0.7,1.8-1.8c0-1-0.8-1.8-1.8-1.8C92,47.8,91.4,48.5,91.4,49.6z"/>
	<path d="M98.1,47.7L98.1,47.7c0.4-0.5,1-0.8,1.6-0.8c1,0,1.8,0.7,1.8,2.2v3.2h-1V49c0-0.8-0.4-1.3-1-1.3c-0.4,0-0.8,0.2-1.3,0.8
		v3.8h-1V47h1V47.7z"/>
	<path d="M102.8,53.4c0.3-0.2,0.4-0.6,0.4-1c0-0.1,0-0.2,0-0.3c-0.3,0-0.6-0.3-0.6-0.7c0-0.3,0.3-0.7,0.7-0.7c0.5,0,0.9,0.4,0.9,1.1
		s-0.4,1.5-1.4,1.7C102.8,53.6,102.8,53.4,102.8,53.4z"/>
	<path d="M107.6,44.2h3.1c2.9,0,4.2,2.2,4.2,4.1c0,2.1-1.6,4.1-4.2,4.1h-3.1V44.2z M108.8,51.2h1.8c2.6,0,3.2-2,3.2-3
		c0-1.6-1-3-3.3-3h-1.7C108.8,45.2,108.8,51.2,108.8,51.2z"/>
	<path d="M116.3,44.2h3.1c2.9,0,4.2,2.2,4.2,4.1c0,2.1-1.6,4.1-4.2,4.1h-3.1V44.2z M117.6,51.2h1.8c2.6,0,3.2-2,3.2-3
		c0-1.6-1-3-3.3-3h-1.7V51.2z"/>
	<path d="M128.9,46c-0.7-0.7-1.3-0.9-1.9-0.9c-0.8,0-1.3,0.3-1.3,0.9c0,1.6,3.4,1.6,3.4,4.1c0,1.3-0.9,2.2-2.2,2.2
		c-0.9,0-1.6-0.3-2.2-0.8v-1.5c0.6,0.8,1.3,1.2,2.1,1.2c0.9,0,1.3-0.6,1.3-1c0-1.6-3.4-1.8-3.4-4.1c0-1.3,0.9-2.2,2.4-2.2
		c0.6,0,1.2,0.2,1.8,0.6L128.9,46L128.9,46z"/>
	<path d="M139.6,48.3c0,0.8-0.7,1.5-1.5,1.5s-1.5-0.7-1.5-1.5s0.7-1.5,1.5-1.5C138.9,46.8,139.6,47.5,139.6,48.3z"/>
	<path d="M149.6,44.2c1.6,0,2.6,0.9,2.6,2.2c0,0.9-0.5,1.6-1.3,2c0.7,0.5,1.2,1.2,1.8,2.2c0.3,0.5,0.5,0.8,1.1,1.6h-1.4l-1-1.6
		c-1-1.6-1.6-1.8-2.2-1.8h-0.5v3.4h-1.1v-8C147.6,44.2,149.6,44.2,149.6,44.2z M148.8,47.8h0.8c1.2,0,1.6-0.6,1.6-1.3
		c0-0.8-0.4-1.2-1.6-1.2h-0.8V47.8z"/>
	<path d="M155.7,51.6c0,0.4-0.3,0.7-0.7,0.7c-0.3,0-0.7-0.3-0.7-0.7c0-0.3,0.3-0.7,0.7-0.7S155.7,51.3,155.7,51.6z"/>
	<path d="M163.1,46c-0.7-0.7-1.3-0.9-1.9-0.9c-0.8,0-1.3,0.3-1.3,0.9c0,1.6,3.4,1.6,3.4,4.1c0,1.3-0.9,2.2-2.2,2.2
		c-0.9,0-1.6-0.3-2.2-0.8v-1.5c0.6,0.8,1.3,1.2,2.1,1.2c0.9,0,1.3-0.6,1.3-1c0-1.6-3.4-1.8-3.4-4.1c0-1.3,0.9-2.2,2.4-2.2
		c0.6,0,1.2,0.2,1.8,0.6L163.1,46L163.1,46z"/>
	<path d="M168.3,48.4c-0.6-0.4-1-0.5-1.5-0.5c-0.9,0-1.6,0.7-1.6,1.8c0,1.1,0.7,1.7,1.8,1.7c0.4,0,0.9-0.1,1.4-0.3v1
		c-0.3,0.2-1,0.3-1.6,0.3c-1.6,0-2.7-1.1-2.7-2.7c0-1.7,1-2.8,2.6-2.8c0.6,0,1,0.2,1.6,0.3L168.3,48.4L168.3,48.4z"/>
	<path d="M174.9,49.6c0,1.6-1.1,2.8-2.8,2.8c-1.6,0-2.8-1.2-2.8-2.8c0-1.6,1.2-2.7,2.8-2.7C173.7,46.9,174.9,48,174.9,49.6z
		 M170.3,49.6c0,1.1,0.7,1.9,1.7,1.9c1.1,0,1.8-0.7,1.8-1.8c0-1-0.8-1.8-1.8-1.8C171,47.8,170.3,48.5,170.3,49.6z"/>
	<path d="M177.2,47h1.6v0.9h-1.6v2.8c0,0.6,0.4,0.8,0.8,0.8s0.8-0.1,1.2-0.3v0.9c-0.3,0.2-0.9,0.3-1.3,0.3c-1.1,0-1.7-0.7-1.7-1.6
		v-2.8h-0.9v-0.1l2-1.9L177.2,47L177.2,47z"/>
	<path d="M181.1,47h1.6v0.9h-1.6v2.8c0,0.6,0.4,0.8,0.8,0.8s0.8-0.1,1.2-0.3v0.9c-0.3,0.2-0.9,0.3-1.3,0.3c-1.1,0-1.7-0.7-1.7-1.6
		v-2.8h-0.9v-0.1l2-1.9L181.1,47L181.1,47z"/>
	<path d="M189.6,44.2c1.7,0,2.5,1,2.5,2.3s-0.9,2.2-2.7,2.2h-1.2v3.4h-1.1v-8H189.6z M188.2,47.8h1.3c0.9,0,1.4-0.4,1.4-1.3
		c0-0.6-0.3-1.2-1.4-1.2h-1.4L188.2,47.8L188.2,47.8z"/>
	<path d="M196.3,52.2v-0.7c-0.4,0.5-1,0.8-1.6,0.8c-1,0-1.8-0.8-1.8-2.2v-3.3h1v3.4c0,0.8,0.3,1.2,1,1.2c0.4,0,0.9-0.3,1.2-0.8v-3.8
		h1v5.3H196.3z"/>
	<path d="M199.9,47.7L199.9,47.7c0.4-0.5,1-0.8,1.6-0.8c1,0,1.8,0.7,1.8,2.2v3.2h-1V49c0-0.8-0.4-1.3-1-1.3c-0.4,0-0.8,0.2-1.3,0.8
		v3.8h-1v-8h1V47.7z"/>
	<path d="M205.6,47.7L205.6,47.7c0.4-0.5,1-0.8,1.6-0.8c1,0,1.8,0.7,1.8,2.2v3.2h-1V49c0-0.8-0.4-1.3-1-1.3c-0.4,0-0.8,0.2-1.3,0.8
		v3.8h-1V47h1V47.7L205.6,47.7z"/>
	<path d="M210.5,53.4c0.3-0.2,0.4-0.6,0.4-1c0-0.1,0-0.2,0-0.3c-0.3,0-0.6-0.3-0.6-0.7c0-0.3,0.3-0.7,0.7-0.7c0.5,0,0.9,0.4,0.9,1.1
		s-0.4,1.5-1.4,1.7V53.4z"/>
	<path d="M215.3,44.2h3.1c2.9,0,4.2,2.2,4.2,4.1c0,2.1-1.6,4.1-4.2,4.1h-3.1V44.2z M216.4,51.2h1.8c2.6,0,3.2-2,3.2-3
		c0-1.6-1-3-3.3-3h-1.7V51.2z"/>
	<path d="M224,44.2h3.1c2.9,0,4.2,2.2,4.2,4.1c0,2.1-1.6,4.1-4.2,4.1H224L224,44.2L224,44.2z M225.1,51.2h1.8c2.6,0,3.2-2,3.2-3
		c0-1.6-1-3-3.3-3h-1.7L225.1,51.2L225.1,51.2z"/>
	<path d="M236.5,46c-0.7-0.7-1.3-0.9-1.9-0.9c-0.8,0-1.3,0.3-1.3,0.9c0,1.6,3.4,1.6,3.4,4.1c0,1.3-0.9,2.2-2.2,2.2
		c-0.9,0-1.6-0.3-2.2-0.8v-1.5c0.6,0.8,1.3,1.2,2.1,1.2c0.9,0,1.3-0.6,1.3-1c0-1.6-3.4-1.8-3.4-4.1c0-1.3,0.9-2.2,2.4-2.2
		c0.6,0,1.2,0.2,1.8,0.6L236.5,46L236.5,46z"/>
</g>
</svg>
