<?xml version="1.0" encoding="UTF-8" standalone="no"?>
<svg width="258px" height="49px" viewBox="0 0 258 49" version="1.1" xmlns="http://www.w3.org/2000/svg" xmlns:xlink="http://www.w3.org/1999/xlink">
    <!-- Generator: Sketch 45 (43475) - http://www.bohemiancoding.com/sketch -->
    <title>reverse logo</title>
    <desc>Created with Sketch.</desc>
    <defs>
        <polygon id="path-1" points="0 49 258 49 258 0 0 0"></polygon>
    </defs>
    <g id="Page-1" stroke="none" stroke-width="1" fill="none" fill-rule="evenodd">
        <g id="Desktop-HD" transform="translate(-15.000000, -17.000000)">
            <g id="navigation">
                <g id="reverse-logo">
                    <g transform="translate(15.000000, 17.000000)">
                        <polygon id="Fill-1" fill="#FFFFFF" points="15.4998 0.4 9.8998 12.3 4.2998 0.4 -0.0002 0.4 -0.0002 32.8 4.7998 32.8 4.4998 9.4 4.5998 9.3 9.4008 19.9 10.2998 19.9 15.1998 9.2 15.2998 9.3 15.0008 32.599 19.7998 32.599 19.7998 0.4"></polygon>
                        <g id="Group-62">
                            <path d="M31.9001,29.7002 C34.1001,29.7002 35.2001,27.0002 35.2001,22.1002 C35.2001,17.0002 34.0001,14.4002 31.8001,14.4002 C29.6001,14.4002 28.5001,17.2002 28.5001,22.1002 C28.5001,27.0002 29.6001,29.7002 31.9001,29.7002 Z M31.9001,10.7002 C36.8001,10.7002 39.9001,15.0002 39.9001,22.0002 C39.9001,29.0002 36.9001,33.3002 31.9001,33.3002 C27.0001,33.3002 23.9001,29.0002 23.9001,22.0002 C23.8001,15.0002 26.9001,10.7002 31.9001,10.7002 Z" id="Fill-2" fill="#FFFFFF"></path>
                            <path d="M53.8,16.5 C53.2,15.2 52.2,14.4 50.8,14.4 C48.4,14.4 46.9,17.4 46.9,22.3 C46.9,26.9 48.2,29.4 50.5,29.4 C51.8,29.4 52.9,28.8 53.6,27.3 L53.6,16.5 L53.8,16.5 Z M53.8,32.7 L53.8,31 L53.7,31 C52.7,32.3 51.2,32.9 49.7,32.9 C46,32.9 42.6,29.2 42.6,21.9 C42.6,15.2 45.6,10.5 50,10.5 C51.6,10.5 52.8,11.1 54,12.3 L54,0.4 L58.5,0.4 L58.5,32.6 L53.8,32.7 Z" id="Fill-4" fill="#FFFFFF"></path>
                            <path d="M71.1999,20 C71.1999,16 70.4999,13.9 68.6999,13.9 C67.0999,13.9 66.2999,16 66.2999,20 L71.1999,20 Z M75.1999,31.3 C73.5999,32.6 71.8999,33.2 69.9999,33.2 C64.8999,33.2 61.7999,29.3 61.7999,21.9 C61.7999,14.8 64.2999,10.6 68.7999,10.6 C71.5999,10.6 73.0999,12.1 74.0999,13.9 C74.7999,14.9 75.5999,17.6 75.5999,22.8 L66.1999,22.8 C66.1999,27.3 67.6999,29.8 70.6999,29.8 C72.2999,29.8 73.7999,29.1 74.9999,27.7 L74.9999,31.3 L75.1999,31.3 Z" id="Fill-6" fill="#FFFFFF"></path>
                            <path d="M79.6999,11.2998 L84.1999,11.2998 L84.1999,17.0998 L84.2999,17.0998 C86.0999,11.9998 86.7999,10.9998 89.0999,10.9998 C89.9999,10.9998 90.5999,11.2998 91.2999,11.6998 L90.9999,15.3998 C90.2999,14.9998 89.7999,14.7998 89.0999,14.7998 C85.6999,14.7998 84.2999,21.5998 84.2999,23.9998 L84.2999,32.4998 L79.7999,32.4998 L79.6999,11.2998 Z" id="Fill-8" fill="#FFFFFF"></path>
                            <path d="M93.8,11.2998 L98.3,11.2998 L98.3,13.4998 L98.4,13.4998 C99.7,11.5998 101.1,10.7998 103.2,10.7998 C106.3,10.7998 108.7,12.8998 108.7,17.1998 L108.7,32.6998 L104.2,32.6998 L104.2,17.3998 C104.2,15.4998 103.6,14.2998 101.8,14.2998 C100.5,14.2998 99.3,15.1998 98.2,16.7998 L98.2,32.5998 L93.8,32.5998 L93.8,11.2998 Z" id="Fill-10" fill="#FFFFFF"></path>
                            <path d="M130.2004,28.7998 C136.0004,28.7998 138.2004,25.4008 138.2004,16.7998 C138.2004,7.6998 136.0994,4.2998 130.3004,4.2998 L129.4004,4.2998 L129.4004,28.7998 L130.2004,28.7998 Z M124.4004,0.3998 L129.8994,0.3998 C139.7004,0.3998 143.0004,6.8998 143.0004,16.3998 C143.0004,29.7998 136.0004,32.5998 130.5004,32.5998 L124.4004,32.5998 L124.4004,0.3998 Z" id="Fill-12" fill="#FFFFFF"></path>
                            <path d="M154.5002,20 C154.5002,16 153.8002,13.9 152.0002,13.9 C150.3992,13.9 149.6002,16 149.6002,20 L154.5002,20 Z M158.5002,31.3 C156.8992,32.6 155.2002,33.2 153.3002,33.2 C148.2002,33.2 145.1002,29.3 145.1002,21.9 C145.1002,14.8 147.6002,10.6 152.1002,10.6 C154.8992,10.6 156.3992,12.1 157.3992,13.9 C158.1002,14.9 158.8992,17.6 158.8992,22.8 L149.5002,22.8 C149.5002,27.3 151.0002,29.8 154.0002,29.8 C155.6002,29.8 157.1002,29.1 158.3002,27.7 L158.3002,31.3 L158.5002,31.3 Z" id="Fill-14" fill="#FFFFFF"></path>
                            <path d="M162.8996,11.2998 L167.3996,11.2998 L167.3996,13.4998 L167.5006,13.4998 C168.7996,11.5998 170.2006,10.7998 172.2996,10.7998 C175.3996,10.7998 177.7996,12.8998 177.7996,17.1998 L177.7996,32.6998 L173.2996,32.6998 L173.2996,17.3998 C173.2996,15.4998 172.7006,14.2998 170.8996,14.2998 C169.5996,14.2998 168.3996,15.1998 167.2996,16.7998 L167.2996,32.5998 L162.7996,32.5998 L162.8996,11.2998 Z" id="Fill-16" fill="#FFFFFF"></path>
                            <path d="M191.8996,32.5 C190.0996,33.1 189.0996,33.2 187.8996,33.2 C184.8996,33.2 183.0996,31.9 183.0996,28.4 L183.0996,14.4 L180.0996,14.4 L180.0996,14.1 C182.7996,11.4 184.8996,8.8 187.0996,5.6 L187.5006,5.6 L187.5006,11.1 L191.7006,11.1 L191.7006,14.4 L187.5006,14.4 L187.5006,26.6 C187.5006,28.7 187.7996,29.4 189.2996,29.4 C190.0006,29.4 190.5996,29.3 191.7006,28.8 L191.7006,32.4 L191.8996,32.5 Z" id="Fill-18" fill="#FFFFFF"></path>
                            <mask id="mask-2" fill="white">
                                <use xlink:href="#path-1"></use>
                            </mask>
                            <g id="Clip-21"></g>
                            <path d="M194.3,32.7 L198.8,32.7 L198.8,11.3 L194.3,11.3 L194.3,32.7 Z M196.5,0 C198,0 199,0.9 199,2.2 C199,3.4 197.8,4.3 196.5,4.3 C195,4.3 194,3.4 194,2.2 C194,1 195.2,0 196.5,0 L196.5,0 Z" id="Fill-20" fill="#FFFFFF" mask="url(#mask-2)"></path>
                            <path d="M202.2004,27.2998 C204.0004,28.9008 205.2004,29.4998 206.7004,29.4998 C207.8994,29.4998 208.8994,28.7998 208.8994,27.6998 C208.8994,24.3998 202.5004,20.3998 202.5004,15.4998 C202.5004,12.6998 204.7004,10.3998 208.0004,10.3998 C209.5004,10.3998 210.8004,10.7998 212.3004,11.6998 L212.3004,15.2998 C210.8004,14.2998 209.5994,13.7998 208.3994,13.7998 C207.3994,13.7998 206.5994,14.3998 206.5994,15.3998 C206.5994,18.4998 213.3004,22.3998 213.3004,27.4008 C213.3004,30.6998 210.8004,32.9008 207.2004,32.9008 C205.3994,32.9008 203.8994,32.2998 202.0994,31.0998 L202.2004,27.2998 Z" id="Fill-22" fill="#FFFFFF" mask="url(#mask-2)"></path>
                            <path d="M226.3996,32.5 C224.5996,33.1 223.5996,33.2 222.3996,33.2 C219.3996,33.2 217.5996,31.9 217.5996,28.4 L217.5996,14.4 L214.5996,14.4 L214.5996,14.1 C217.2996,11.4 219.3996,8.8 221.5996,5.6 L222.0006,5.6 L222.0006,11.1 L226.2006,11.1 L226.2006,14.4 L222.0006,14.4 L222.0006,26.6 C222.0006,28.7 222.2996,29.4 223.7996,29.4 C224.5006,29.4 225.0996,29.3 226.2006,28.8 L226.2006,32.4 L226.3996,32.5 Z" id="Fill-23" fill="#FFFFFF" mask="url(#mask-2)"></path>
                            <path d="M228.8996,11.2998 L233.3996,11.2998 L233.3996,17.0998 L233.5006,17.0998 C235.2996,11.9998 236.0006,10.9998 238.2996,10.9998 C239.2006,10.9998 239.7996,11.2998 240.5006,11.6998 L240.2006,15.5998 C239.5006,15.1998 239.0006,14.9998 238.2996,14.9998 C234.8996,14.9998 233.5006,21.7998 233.5006,24.1998 L233.5006,32.6998 L229.0006,32.6998 L229.0006,11.2998 L228.8996,11.2998 Z" id="Fill-24" fill="#FFFFFF" mask="url(#mask-2)"></path>
                            <polygon id="Fill-25" fill="#FFFFFF" mask="url(#mask-2)" points="247.5998 29 240.8998 11.5 245.4998 11.5 249.7008 22.6 249.7998 22.6 253.4998 11.5 257.9998 11.5 246.2008 46.7 241.7998 46.7"></polygon>
                            <path d="M8.5998,46.4004 C8.5998,47.9004 7.9998,49.0004 6.3998,49.0004 L6.0998,49.0004 L5.8998,48.0004 L6.1998,48.0004 C7.3998,48.0004 7.4998,47.4004 7.4998,46.0994 L7.4998,38.2994 L8.5998,38.2994 L8.5998,46.4004 Z" id="Fill-26" fill="#22B8FF" mask="url(#mask-2)"></path>
                            <path d="M13.4001,43.0996 C13.4001,42.2996 12.9001,41.7996 12.2001,41.7996 C11.4001,41.7996 10.9001,42.2996 10.8001,43.0996 L13.4001,43.0996 Z M14.4001,45.7996 C13.8001,46.2006 13.2001,46.4006 12.3001,46.4006 C10.7001,46.4006 9.7001,44.9996 9.7001,43.5996 C9.7001,41.9996 10.7001,40.9006 12.1001,40.9006 C13.5001,40.9006 14.3001,41.7996 14.3001,43.7996 L10.6001,43.7996 C10.8001,44.7996 11.4001,45.4006 12.3001,45.4006 C12.9001,45.4006 13.5001,45.0996 14.1001,44.7996 L14.1001,45.7996 L14.4001,45.7996 Z" id="Fill-27" fill="#22B8FF" mask="url(#mask-2)"></path>
                            <path d="M16.6999,41 L16.6999,42.2 C17.1999,41.3 17.6999,40.9 18.2999,40.9 C18.6999,40.9 19.0999,41.1 19.4999,41.5 L18.9999,42.4 C18.6999,42.1 18.2999,41.9 18.0999,41.9 C17.3999,41.9 16.7999,42.6 16.7999,43.5 L16.7999,46.2 L15.7999,46.2 L15.7999,41 L16.6999,41 Z" id="Fill-28" fill="#22B8FF" mask="url(#mask-2)"></path>
                            <path d="M20.6999,43.5996 C20.6999,44.7006 21.3999,45.4996 22.3999,45.4996 C23.4999,45.4996 24.1999,44.7996 24.1999,43.7006 C24.1999,42.7006 23.3999,41.9006 22.3999,41.9006 C21.3999,41.7996 20.6999,42.4996 20.6999,43.5996 M25.1999,43.5996 C25.1999,45.2006 24.0999,46.4006 22.3999,46.4006 C20.7999,46.4006 19.5999,45.2006 19.5999,43.5996 C19.5999,41.9996 20.7999,40.9006 22.3999,40.9006 C23.9999,40.9006 25.1999,41.9996 25.1999,43.5996" id="Fill-29" fill="#22B8FF" mask="url(#mask-2)"></path>
                            <path d="M27.3,41 L27.3,41.7 C27.8,41.2 28.3,40.9 28.9,40.9 C29.6,40.9 30.1,41.2 30.5,41.8 C30.9,41.3 31.5,40.9 32.2,40.9 C33.2,40.9 33.9,41.8 33.9,43 L33.9,46.3 L32.9,46.3 L32.9,43 C32.9,42.2 32.4,41.8 31.8,41.8 C31.5,41.8 31,42.1 30.6,42.5 L30.6,46.3 L29.6,46.3 L29.6,43 C29.6,42.1 29.2,41.8 28.7,41.8 C28.2,41.8 27.8,42 27.4,42.5 L27.4,46.3 L26.4,46.3 L26.4,41 L27.3,41 Z" id="Fill-30" fill="#22B8FF" mask="url(#mask-2)"></path>
                            <polygon id="Fill-31" fill="#22B8FF" mask="url(#mask-2)" points="35.5998 49 34.4998 49 36.2998 45.1 34.1998 41 35.3998 41 36.7998 44 38.1998 41 39.3998 41"></polygon>
                            <path d="M44.0002,42.9004 L46.5002,42.9004 L45.2002,40.0004 L44.0002,42.9004 Z M49.2002,46.2004 L48.0002,46.2004 L47.0002,43.9004 L43.6002,43.9004 L42.6002,46.2004 L41.4002,46.2004 L44.8002,38.0994 L45.6002,38.0994 L49.2002,46.2004 Z" id="Fill-32" fill="#22B8FF" mask="url(#mask-2)"></path>
                            <path d="M51.1999,45.5996 C51.1999,45.9996 50.8999,46.2996 50.4999,46.2996 C50.1999,46.2996 49.7999,45.9996 49.7999,45.5996 C49.7999,45.2996 50.0999,44.9006 50.4999,44.9006 C50.8999,44.9006 51.1999,45.2996 51.1999,45.5996" id="Fill-33" fill="#22B8FF" mask="url(#mask-2)"></path>
                            <path d="M55.8,41.7998 L57.1,41.7998 C58,41.7998 58.5,41.4008 58.5,40.4998 C58.5,39.9008 58.2,39.2998 57.1,39.2998 L55.7,39.2998 L55.8,41.7998 Z M57.1,38.1998 C58.8,38.1998 59.6,39.1998 59.6,40.4998 C59.6,41.7998 58.7,42.6998 56.9,42.6998 L55.8,42.6998 L55.8,46.0998 L54.7,46.0998 L54.7,38.0998 L57.1,38.1998 Z" id="Fill-34" fill="#22B8FF" mask="url(#mask-2)"></path>
                            <path d="M63.6999,43.0996 C63.6999,42.2996 63.1999,41.7996 62.4999,41.7996 C61.6999,41.7996 61.1999,42.2996 61.0999,43.0996 L63.6999,43.0996 Z M64.5999,45.7996 C63.9999,46.2006 63.3999,46.4006 62.4999,46.4006 C60.8999,46.4006 59.8999,44.9996 59.8999,43.5996 C59.8999,41.9996 60.8999,40.9006 62.2999,40.9006 C63.6999,40.9006 64.4999,41.7996 64.4999,43.7996 L60.7999,43.7996 C60.9999,44.7996 61.5999,45.4006 62.4999,45.4006 C63.0999,45.4006 63.6999,45.0996 64.2999,44.7996 L64.2999,45.7996 L64.5999,45.7996 Z" id="Fill-35" fill="#22B8FF" mask="url(#mask-2)"></path>
                            <path d="M67.0002,41 L68.6002,41 L68.6002,41.9 L67.0002,41.9 L67.0002,44.7 C67.0002,45.3 67.4002,45.5 67.8002,45.5 C68.2002,45.5 68.6002,45.4 69.0002,45.2 L69.0002,46.1 C68.7002,46.3 68.1002,46.4 67.7002,46.4 C66.6002,46.4 66.0002,45.7 66.0002,44.8 L66.0002,42 L65.1002,42 L65.1002,41.9 L67.1002,40 C67.0002,40 67.0002,41 67.0002,41" id="Fill-36" fill="#22B8FF" mask="url(#mask-2)"></path>
                            <path d="M73.0998,43.0996 C73.0998,42.2996 72.5998,41.7996 71.8998,41.7996 C71.0998,41.7996 70.5998,42.2996 70.4998,43.0996 L73.0998,43.0996 Z M73.9998,45.7996 C73.3998,46.2006 72.7998,46.4006 71.8998,46.4006 C70.2998,46.4006 69.2998,44.9996 69.2998,43.5996 C69.2998,41.9996 70.2998,40.9006 71.6998,40.9006 C73.0998,40.9006 73.8998,41.7996 73.8998,43.7996 L70.1998,43.7996 C70.3998,44.7996 70.9998,45.4006 71.8998,45.4006 C72.4998,45.4006 73.0998,45.0996 73.6998,44.7996 L73.6998,45.7996 L73.9998,45.7996 Z" id="Fill-37" fill="#22B8FF" mask="url(#mask-2)"></path>
                            <path d="M76.4001,41 L76.4001,42.2 C76.9001,41.3 77.4001,40.9 78.0001,40.9 C78.4001,40.9 78.8001,41.1 79.2001,41.5 L78.7001,42.4 C78.4001,42.1 78.0001,41.9 77.8001,41.9 C77.1001,41.9 76.5001,42.6 76.5001,43.5 L76.5001,46.2 L75.5001,46.2 L75.5001,41 L76.4001,41 Z" id="Fill-38" fill="#22B8FF" mask="url(#mask-2)"></path>
                            <path d="M82.9001,42.4004 C82.3001,42.0004 81.8001,41.7994 81.3001,41.7994 C80.9001,41.7994 80.6001,42.0004 80.6001,42.2994 C80.6001,42.5994 80.9001,42.7994 81.9001,43.2994 C82.8001,43.9004 83.1001,44.2004 83.1001,44.7994 C83.1001,45.7004 82.3001,46.4004 81.4001,46.4004 C80.8001,46.4004 80.3001,46.2994 79.6001,45.9004 L79.6001,44.7994 C80.3001,45.2004 80.9001,45.5004 81.3001,45.5004 C81.7001,45.5004 82.1001,45.2004 82.1001,44.9004 C82.1001,44.0994 79.7001,43.7994 79.7001,42.2994 C79.7001,41.4004 80.4001,40.7994 81.4001,40.7994 C81.9001,40.7994 82.4001,41.0004 83.0001,41.2004 L82.9001,42.4004 Z" id="Fill-39" fill="#22B8FF" mask="url(#mask-2)"></path>
                            <path d="M85.1999,43.5996 C85.1999,44.7006 85.8999,45.4996 86.8999,45.4996 C87.9999,45.4996 88.6999,44.7996 88.6999,43.7006 C88.6999,42.7006 87.8999,41.9006 86.8999,41.9006 C85.7999,41.7996 85.1999,42.4996 85.1999,43.5996 M89.5999,43.5996 C89.5999,45.2006 88.4999,46.4006 86.7999,46.4006 C85.1999,46.4006 83.9999,45.2006 83.9999,43.5996 C83.9999,41.9996 85.1999,40.9006 86.7999,40.9006 C88.4999,40.9006 89.5999,41.9996 89.5999,43.5996" id="Fill-40" fill="#22B8FF" mask="url(#mask-2)"></path>
                            <path d="M91.9001,41.7002 L91.9001,41.7002 C92.3001,41.2002 92.9001,40.9002 93.5001,40.9002 C94.5001,40.9002 95.3001,41.5992 95.3001,43.0992 L95.3001,46.3002 L94.3001,46.3002 L94.3001,43.0002 C94.3001,42.2002 93.9001,41.7002 93.3001,41.7002 C92.9001,41.7002 92.5001,41.9002 92.0001,42.5002 L92.0001,46.3002 L91.0001,46.3002 L91.0001,41.0002 L92.0001,41.0002 L91.9001,41.7002 Z" id="Fill-41" fill="#22B8FF" mask="url(#mask-2)"></path>
                            <path d="M96.5998,47.4004 C96.8998,47.2004 96.9998,46.7994 96.9998,46.4004 L96.9998,46.0994 C96.6998,46.0994 96.3998,45.7994 96.3998,45.4004 C96.3998,45.0994 96.6998,44.7004 97.0998,44.7004 C97.5998,44.7004 97.9998,45.0994 97.9998,45.7994 C97.9998,46.5004 97.5998,47.2994 96.5998,47.4004 C96.5998,47.5994 96.5998,47.4004 96.5998,47.4004" id="Fill-42" fill="#22B8FF" mask="url(#mask-2)"></path>
                            <path d="M102.5998,45.2002 L104.3998,45.2002 C106.9998,45.2002 107.5998,43.2002 107.5998,42.2002 C107.5998,40.5992 106.5998,39.2002 104.2998,39.2002 L102.5998,39.2002 L102.5998,45.2002 Z M101.3998,38.2002 L104.4998,38.2002 C107.3998,38.2002 108.6998,40.4002 108.6998,42.3002 C108.6998,44.4002 107.0998,46.4002 104.4998,46.4002 L101.3998,46.4002 L101.3998,38.2002 Z" id="Fill-43" fill="#22B8FF" mask="url(#mask-2)"></path>
                            <path d="M111.4001,45.2002 L113.2001,45.2002 C115.8001,45.2002 116.4001,43.2002 116.4001,42.2002 C116.4001,40.5992 115.4001,39.2002 113.1001,39.2002 L111.4001,39.2002 L111.4001,45.2002 Z M110.1001,38.2002 L113.2001,38.2002 C116.1001,38.2002 117.4001,40.4002 117.4001,42.3002 C117.4001,44.4002 115.8001,46.4002 113.2001,46.4002 L110.1001,46.4002 L110.1001,38.2002 Z" id="Fill-44" fill="#22B8FF" mask="url(#mask-2)"></path>
                            <path d="M122.6999,40 C121.9999,39.3 121.3999,39.1 120.7999,39.1 C119.9999,39.1 119.4999,39.4 119.4999,40 C119.4999,41.6 122.8999,41.6 122.8999,44.1 C122.8999,45.4 121.9999,46.3 120.6999,46.3 C119.7999,46.3 119.0999,46 118.4999,45.5 L118.4999,44 C119.0999,44.8 119.7999,45.2 120.5999,45.2 C121.4999,45.2 121.8999,44.6 121.8999,44.2 C121.8999,42.6 118.4999,42.4 118.4999,40.1 C118.4999,38.8 119.3999,37.9 120.8999,37.9 C121.4999,37.9 122.0999,38.1 122.6999,38.5 L122.6999,40 Z" id="Fill-45" fill="#22B8FF" mask="url(#mask-2)"></path>
                            <path d="M133.3996,42.2998 C133.3996,43.0998 132.7006,43.7998 131.8996,43.7998 C131.0996,43.7998 130.3996,43.0998 130.3996,42.2998 C130.3996,41.4998 131.0996,40.7998 131.8996,40.7998 C132.7006,40.7998 133.3996,41.4998 133.3996,42.2998" id="Fill-46" fill="#22B8FF" mask="url(#mask-2)"></path>
                            <path d="M142.5998,41.7998 L143.3998,41.7998 C144.5998,41.7998 144.9998,41.1998 144.9998,40.4998 C144.9998,39.6998 144.5998,39.2998 143.3998,39.2998 L142.5998,39.2998 L142.5998,41.7998 Z M143.3998,38.1998 C144.9998,38.1998 145.9998,39.0998 145.9998,40.4008 C145.9998,41.2998 145.4998,41.9998 144.7008,42.4008 C145.3998,42.9008 145.8998,43.5998 146.4998,44.5998 C146.7998,45.0998 146.9998,45.4008 147.5998,46.1998 L146.2008,46.1998 L145.2008,44.5998 C144.2008,42.9998 143.5998,42.7998 142.9998,42.7998 L142.4998,42.7998 L142.4998,46.1998 L141.3998,46.1998 L141.3998,38.1998 L143.3998,38.1998 Z" id="Fill-47" fill="#22B8FF" mask="url(#mask-2)"></path>
                            <path d="M149.5002,45.5996 C149.5002,45.9996 149.2002,46.2996 148.8002,46.2996 C148.5002,46.2996 148.1002,45.9996 148.1002,45.5996 C148.1002,45.2996 148.3992,44.9006 148.8002,44.9006 C149.2002,44.9006 149.5002,45.2996 149.5002,45.5996" id="Fill-48" fill="#22B8FF" mask="url(#mask-2)"></path>
                            <path d="M156.8996,40 C156.2006,39.3 155.5996,39.1 155.0006,39.1 C154.2006,39.1 153.7006,39.4 153.7006,40 C153.7006,41.6 157.0996,41.6 157.0996,44.1 C157.0996,45.4 156.2006,46.3 154.8996,46.3 C154.0006,46.3 153.2996,46 152.7006,45.5 L152.7006,44 C153.2996,44.8 154.0006,45.2 154.7996,45.2 C155.7006,45.2 156.0996,44.6 156.0996,44.2 C156.0996,42.6 152.7006,42.4 152.7006,40.1 C152.7006,38.8 153.5996,37.9 155.0996,37.9 C155.7006,37.9 156.2996,38.1 156.8996,38.5 L156.8996,40 Z" id="Fill-49" fill="#22B8FF" mask="url(#mask-2)"></path>
                            <path d="M162.0998,42.4004 C161.4998,42.0004 161.0998,41.9004 160.5998,41.9004 C159.7008,41.9004 158.9998,42.5994 158.9998,43.7004 C158.9998,44.7994 159.7008,45.4004 160.7998,45.4004 C161.2008,45.4004 161.7008,45.2994 162.2008,45.0994 L162.2008,46.0994 C161.8998,46.2994 161.2008,46.4004 160.5998,46.4004 C158.9998,46.4004 157.8998,45.2994 157.8998,43.7004 C157.8998,42.0004 158.8998,40.9004 160.4998,40.9004 C161.0998,40.9004 161.4998,41.0994 162.0998,41.2004 L162.0998,42.4004 Z" id="Fill-50" fill="#22B8FF" mask="url(#mask-2)"></path>
                            <path d="M164.0998,43.5996 C164.0998,44.7006 164.7998,45.4996 165.7998,45.4996 C166.8998,45.4996 167.5998,44.7996 167.5998,43.7006 C167.5998,42.7006 166.7998,41.9006 165.7998,41.9006 C164.7998,41.7996 164.0998,42.4996 164.0998,43.5996 M168.7008,43.5996 C168.7008,45.2006 167.5998,46.4006 165.8998,46.4006 C164.2998,46.4006 163.0998,45.2006 163.0998,43.5996 C163.0998,41.9996 164.2998,40.9006 165.8998,40.9006 C167.4998,40.9006 168.7008,41.9996 168.7008,43.5996" id="Fill-51" fill="#22B8FF" mask="url(#mask-2)"></path>
                            <path d="M171.0002,41 L172.6002,41 L172.6002,41.9 L171.0002,41.9 L171.0002,44.7 C171.0002,45.3 171.3992,45.5 171.8002,45.5 C172.2002,45.5 172.6002,45.4 173.0002,45.2 L173.0002,46.1 C172.7002,46.3 172.1002,46.4 171.7002,46.4 C170.6002,46.4 170.0002,45.7 170.0002,44.8 L170.0002,42 L169.1002,42 L169.1002,41.9 L171.1002,40 L171.0002,41 Z" id="Fill-52" fill="#22B8FF" mask="url(#mask-2)"></path>
                            <path d="M174.8996,41 L176.5006,41 L176.5006,41.9 L174.8996,41.9 L174.8996,44.7 C174.8996,45.3 175.2996,45.5 175.7006,45.5 C176.0996,45.5 176.5006,45.4 176.8996,45.2 L176.8996,46.1 C176.5996,46.3 176.0006,46.4 175.5996,46.4 C174.5006,46.4 173.8996,45.7 173.8996,44.8 L173.8996,42 L173.0006,42 L173.0006,41.9 L175.0006,40 L174.8996,41 Z" id="Fill-53" fill="#22B8FF" mask="url(#mask-2)"></path>
                            <path d="M182.0002,41.7998 L183.3002,41.7998 C184.2002,41.7998 184.7002,41.4008 184.7002,40.4998 C184.7002,39.9008 184.3992,39.2998 183.3002,39.2998 L181.8992,39.2998 L182.0002,41.7998 Z M183.3992,38.1998 C185.1002,38.1998 185.8992,39.1998 185.8992,40.4998 C185.8992,41.7998 185.0002,42.6998 183.2002,42.6998 L182.0002,42.6998 L182.0002,46.0998 L180.8992,46.0998 L180.8992,38.0998 L183.3992,38.1998 Z" id="Fill-54" fill="#22B8FF" mask="url(#mask-2)"></path>
                            <path d="M190.0998,46.2002 L190.0998,45.5002 C189.7008,46.0002 189.0998,46.3002 188.4998,46.3002 C187.4998,46.3002 186.7008,45.5002 186.7008,44.0992 L186.7008,40.8002 L187.7008,40.8002 L187.7008,44.2002 C187.7008,45.0002 187.9998,45.4002 188.7008,45.4002 C189.0998,45.4002 189.5998,45.0992 189.8998,44.5992 L189.8998,40.8002 L190.8998,40.8002 L190.8998,46.0992 L190.0998,46.2002 Z" id="Fill-55" fill="#22B8FF" mask="url(#mask-2)"></path>
                            <path d="M193.7004,41.7002 L193.7004,41.7002 C194.0994,41.2002 194.7004,40.9002 195.3004,40.9002 C196.3004,40.9002 197.0994,41.5992 197.0994,43.0992 L197.0994,46.3002 L196.0994,46.3002 L196.0994,43.0002 C196.0994,42.2002 195.7004,41.7002 195.0994,41.7002 C194.7004,41.7002 194.3004,41.9002 193.8004,42.5002 L193.8004,46.3002 L192.8004,46.3002 L192.8004,38.3002 L193.8004,38.3002 L193.8004,41.7002 L193.7004,41.7002 Z" id="Fill-56" fill="#22B8FF" mask="url(#mask-2)"></path>
                            <path d="M199.3996,41.7002 L199.3996,41.7002 C199.7996,41.2002 200.3996,40.9002 201.0006,40.9002 C202.0006,40.9002 202.7996,41.5992 202.7996,43.0992 L202.7996,46.3002 L201.7996,46.3002 L201.7996,43.0002 C201.7996,42.2002 201.3996,41.7002 200.7996,41.7002 C200.3996,41.7002 200.0006,41.9002 199.5006,42.5002 L199.5006,46.3002 L198.5006,46.3002 L198.5006,41.0002 L199.5006,41.0002 L199.5006,41.7002 L199.3996,41.7002 Z" id="Fill-57" fill="#22B8FF" mask="url(#mask-2)"></path>
                            <path d="M204.3,47.4004 C204.6,47.2004 204.7,46.7994 204.7,46.4004 L204.7,46.0994 C204.4,46.0994 204.1,45.7994 204.1,45.4004 C204.1,45.0994 204.4,44.7004 204.8,44.7004 C205.3,44.7004 205.7,45.0994 205.7,45.7994 C205.7,46.5004 205.3,47.2994 204.3,47.4004" id="Fill-58" fill="#22B8FF" mask="url(#mask-2)"></path>
                            <path d="M210.2004,45.2002 L212.0004,45.2002 C214.5994,45.2002 215.2004,43.2002 215.2004,42.2002 C215.2004,40.5992 214.2004,39.2002 211.8994,39.2002 L210.2004,39.2002 L210.2004,45.2002 Z M209.0994,38.2002 L212.2004,38.2002 C215.0994,38.2002 216.3994,40.4002 216.3994,42.3002 C216.3994,44.4002 214.8004,46.4002 212.2004,46.4002 L209.0994,46.4002 L209.0994,38.2002 Z" id="Fill-59" fill="#22B8FF" mask="url(#mask-2)"></path>
                            <path d="M218.8996,45.2002 L220.7006,45.2002 C223.2996,45.2002 223.8996,43.2002 223.8996,42.2002 C223.8996,40.5992 222.8996,39.2002 220.5996,39.2002 L218.8996,39.2002 L218.8996,45.2002 Z M217.7996,38.2002 L220.8996,38.2002 C223.7996,38.2002 225.0996,40.4002 225.0996,42.3002 C225.0996,44.4002 223.5006,46.4002 220.8996,46.4002 L217.7996,46.4002 L217.7996,38.2002 Z" id="Fill-60" fill="#22B8FF" mask="url(#mask-2)"></path>
                            <path d="M230.3,40 C229.6,39.3 229,39.1 228.4,39.1 C227.6,39.1 227.1,39.4 227.1,40 C227.1,41.6 230.5,41.6 230.5,44.1 C230.5,45.4 229.6,46.3 228.3,46.3 C227.4,46.3 226.7,46 226.1,45.5 L226.1,44 C226.7,44.8 227.4,45.2 228.2,45.2 C229.1,45.2 229.5,44.6 229.5,44.2 C229.5,42.6 226.1,42.4 226.1,40.1 C226.1,38.8 227,37.9 228.5,37.9 C229.1,37.9 229.7,38.1 230.3,38.5 L230.3,40 Z" id="Fill-61" fill="#22B8FF" mask="url(#mask-2)"></path>
                        </g>
                    </g>
                </g>
            </g>
        </g>
    </g>
</svg>